<svg width="60" height="60" viewBox="0 0 60 60" fill="none" xmlns="http://www.w3.org/2000/svg">
    <path opacity=".3" fill-rule="evenodd" clip-rule="evenodd" d="m35.178 13.533 13.739 5.115c.533.198.912.68.965 1.256.133 1.441.453 5.207.572 9.162.06 1.978.07 4.009-.02 5.825-.089 1.805-.278 3.434-.63 4.588-1.227 4.019-4.914 7.766-8.209 10.473a55.308 55.308 0 0 1-5.814 4.16 30.274 30.274 0 0 1-.493.299l-.027.016h-.002a.498.498 0 0 1-.507.008l-.001-.001-.03-.016a52.468 52.468 0 0 1-2.02-1.198 58.94 58.94 0 0 1-4.703-3.258c-3.51-2.704-7.444-6.45-8.754-10.474-.377-1.156-.578-2.785-.673-4.59-.096-1.814-.086-3.843-.022-5.819.127-3.952.467-7.717.61-9.168a1.486 1.486 0 0 1 .992-1.258l14.681-5.124a.499.499 0 0 1 .346.004z" fill="#00BAB3"/>
    <path d="M30 56s-15.954-8.842-19.101-18.7c-1.807-5.66-.385-21.558-.062-24.885a.975.975 0 0 1 .655-.826L30 5M30 56s15.955-8.842 19.101-18.7c1.807-5.66.386-21.558.062-24.885a.975.975 0 0 0-.655-.826L30 5" stroke="#222" stroke-width="3" stroke-linecap="round" stroke-linejoin="round"/>
    <path d="m23 29.5 5.5 5.5L39 25" stroke="#222" stroke-width="3" stroke-linecap="round" stroke-linejoin="round"/>
</svg>
